<svg width="25" height="25" viewBox="0 0 25 25" fill="none" xmlns="http://www.w3.org/2000/svg">
<g clip-path="url(#clip0_1_448)">
<path d="M23.9564 12.3069C23.9564 5.9556 18.8077 0.806879 12.4564 0.806879C6.10514 0.806879 0.956421 5.9556 0.956421 12.3069C0.956421 18.0469 5.1618 22.8044 10.6595 23.6672V15.6311H7.73962V12.3069H10.6595V9.77329C10.6595 6.8911 12.3764 5.29907 15.0033 5.29907C16.2615 5.29907 17.5775 5.52368 17.5775 5.52368V8.35375H16.1274C14.6988 8.35375 14.2533 9.24022 14.2533 10.1497V12.3069H17.4427L16.9329 15.6311H14.2533V23.6672C19.751 22.8044 23.9564 18.0469 23.9564 12.3069Z" fill="white"/>
</g>
<defs>
<clipPath id="clip0_1_448">
<rect width="24" height="24" fill="white" transform="translate(0.456421 0.237)"/>
</clipPath>
</defs>
</svg>
